<svg width="61" height="52" viewBox="0 0 61 52" fill="none" xmlns="http://www.w3.org/2000/svg">
<path d="M32.031 12.7012L31.9534 12.6787C31.544 12.5603 31.3048 12.1397 31.4293 11.7346L32.031 12.7012ZM32.031 12.7012L32.0343 12.6976M32.031 12.7012L32.0343 12.6976M32.0343 12.6976C32.4187 12.7668 32.8047 12.545 32.9196 12.1688C33.9582 8.78566 37.2319 6.41843 40.8834 6.41843C41.3091 6.41843 41.6613 6.08265 41.6613 5.66032C41.6613 5.23797 41.3091 4.9022 40.8834 4.9022C36.4057 4.9022 32.6393 7.79275 31.4294 11.7345L32.0343 12.6976Z" fill="#8F918D" stroke="#F9FFF9" stroke-width="0.255634"/>
<path d="M49.9683 36.4884H46.0747C45.7164 36.4884 45.4258 36.2067 45.4258 35.8593C45.4258 35.5119 45.7164 35.2301 46.0747 35.2301H49.9683C55.3354 35.2301 59.7022 30.9964 59.7022 25.793C59.7022 20.5896 55.3354 16.356 49.9683 16.356H49.8746C49.6864 16.356 49.5075 16.2769 49.3842 16.1389C49.2609 16.0009 49.2053 15.818 49.2322 15.6374C49.2901 15.2455 49.3193 14.8519 49.3193 14.4685C49.3193 9.95898 45.5346 6.28968 40.8832 6.28968C39.0736 6.28968 37.3479 6.83793 35.8923 7.87555C35.5725 8.10339 35.1183 8.00228 34.9333 7.66119C30.8112 0.0513292 20.0448 -0.970598 14.4629 5.64932C12.1115 8.43819 11.1876 12.0661 11.9279 15.6019C12.0095 15.9924 11.7012 16.3564 11.2919 16.3564H11.0319C5.66482 16.3564 1.29793 20.5901 1.29793 25.7935C1.29793 30.9969 5.66482 35.2306 11.0319 35.2306H14.9255C15.2838 35.2306 15.5744 35.5124 15.5744 35.8598C15.5744 36.2071 15.2838 36.4889 14.9255 36.4889H11.0319C4.94905 36.4889 0 31.6908 0 25.7935C0 20.0616 4.67506 15.3682 10.5225 15.1093C9.97322 11.4409 11.0236 7.74071 13.458 4.85301C19.4341 -2.23513 30.8871 -1.44064 35.7285 6.46316C37.273 5.52438 39.0404 5.03191 40.8829 5.03191C46.5185 5.03191 50.9841 9.68217 50.5933 15.1152C56.3869 15.4302 60.9999 20.0989 60.9999 25.793C60.9999 31.6908 56.0508 36.4884 49.968 36.4884L49.9683 36.4884Z" fill="#8F918D"/>
<path d="M14.0608 35.504C14.0608 44.2519 21.4003 51.3617 30.4133 51.3617C39.4265 51.3617 46.7658 44.2517 46.7658 35.504C46.7658 26.7562 39.4265 19.6464 30.4133 19.6464C21.4002 19.6464 14.0608 26.7563 14.0608 35.504ZM15.6169 35.504C15.6169 27.6003 22.2509 21.1629 30.4133 21.1629C38.5756 21.1629 45.2097 27.6002 45.2097 35.504C45.2097 43.4078 38.5756 49.8452 30.4133 49.8452C22.251 49.8452 15.6169 43.4079 15.6169 35.504Z" fill="#8F918D" stroke="#F9FFF9" stroke-width="0.255634"/>
<path d="M30.1056 41.8358C30.1056 42.1651 30.3799 42.4254 30.7097 42.4254C31.0394 42.4254 31.3137 42.1655 31.3137 41.8358V29.8601C31.3137 29.5308 31.0394 29.2705 30.7097 29.2705C30.3799 29.2705 30.1056 29.5308 30.1056 29.8601V41.8358Z" fill="#8F918D" stroke="#8F918D" stroke-width="0.255634"/>
<path d="M34.0849 33.9641C34.203 34.0786 34.3576 34.1354 34.5106 34.1354L27.2451 33.8715L27.3349 33.9641L27.335 33.964L30.7099 30.692L34.0849 33.9641ZM31.1356 29.4427C30.9 29.2143 30.5195 29.2142 30.2841 29.4427L34.5106 34.1354C34.6634 34.1354 34.8181 34.079 34.9364 33.964C35.1742 33.7334 35.1742 33.3581 34.9363 33.1275L31.1356 29.4427Z" fill="#8F918D" stroke="#8F918D" stroke-width="0.255634"/>
</svg>
